<svg version="1.1" xmlns="http://www.w3.org/2000/svg" xmlns:xlink="http://www.w3.org/1999/xlink" width="1674" height="948" viewBox="0,0,1674,948"><g transform="translate(502.2,284.4) scale(0.4,0.4)"><g fill="none" fill-rule="nonzero" stroke="none" stroke-width="none" stroke-linecap="butt" stroke-linejoin="miter" stroke-miterlimit="10" stroke-dasharray="" stroke-dashoffset="0" font-family="none" font-weight="none" font-size="none" text-anchor="none" style="mix-blend-mode: normal"><path d="M-1060.333,769.75739c-15.55286,2.08775 -32.67378,0.65677 -51.36276,-4.29294l-35.76685,-9.47272l21.88966,-82.65042l30.93349,8.19262c3.91823,1.03773 7.72616,1.42398 11.42378,1.15877l5.88507,8.57971l3.39603,11.77145l9.4616,8.17178l11.93768,8.97532l-0.017,12.71509l3.91216,14.07069l7.28185,8.83493l-5.71694,9.94701l0.20757,1.36888c-4.32369,1.12859 -8.81213,2.0052 -13.46534,2.62983z" fill="#d0d0ce" stroke="none" stroke-width="1"/><path d="M-590.53952,676.72671l1.52971,1.63577l-0.7306,-0.07234l-2.1239,-0.32453z" fill="#d0d0ce" stroke="none" stroke-width="1"/><path d="M-170.84625,687.1834l-15.73173,3.4196l-6.8821,-14.7179l-12.37546,-7.21494l-7.87058,-4.21422l-7.50524,-9.19458l-5.60018,-11.58835l1.7072,-10.45154l-10.5787,-10.45058l-2.54258,-12.69833l0.60449,-10.70542l2.46925,-12.533l1.95119,-9.19625l2.64506,-15.2718l4.25518,-12.72677l6.25126,-6.55564l-5.2711,-11.79323l12.69918,-9.12029l2.19393,-12.74088l8.08224,-10.84761l12.69171,-9.52163l6.71915,-10.74033l8.93089,-5.49425l7.49721,-8.70757l2.79831,0.52129l0.523,222.23007z" fill="#d0d0ce" stroke="none" stroke-width="1"/><path d="M-144.34743,471.86484c10.62647,-15.71872 23.37553,-28.50745 38.24719,-38.36619c6.33862,-4.20201 13.03838,-7.78426 20.09928,-10.74677l-1.79277,13.78668l0.7049,10.18231l2.99549,13.78838l-1.89396,9.27486l-8.80132,10.5513l-2.16468,10.67956l-15.77028,4.50782l-8.54792,5.02423l-8.36363,1.65685l-12.32947,-2.26571l-11.44,1.97729l-7.79148,1.48306c4.59374,-11.20246 10.20996,-21.71369 16.84865,-31.53368z" fill="#d0d0ce" stroke="none" stroke-width="1"/><path d="M123.90711,394.61907l83.49238,9.22077l-12.66075,114.64084l-10.12608,3.96746l-13.80657,6.70764l-9.80633,-2.29332l-9.30171,3.66983l-9.80626,11.89175l-7.84616,2.42824l-10.93205,-5.25537l-9.71072,2.386l-6.12095,3.17443z" fill="#d0d0ce" stroke="none" stroke-width="1"/><path d="M518.37925,385.88287l111.8531,5.73444l3.29018,13.8147l-8.02497,5.73297l-9.41692,-0.58826l-14.41282,3.97466l-9.47781,6.82638l-9.87451,-5.5113l-7.28722,7.27361l-11.41003,0.12008l-8.51939,-0.71886l-8.48832,10.65619l-15.84905,-0.91424l-13.61802,3.48298l-14.35862,0.3379l-2.11963,0.45853z" fill="#d0d0ce" stroke="none" stroke-width="1"/><path d="M1001.55632,595.18543l-15.61473,-1.49716l-9.70931,7.75105l-9.896,-5.01595l-9.90595,5.48082l-7.54598,-6.25656l51.09301,-9.79797z" fill="#d0d0ce" stroke="none" stroke-width="1"/><path d="M1034.56479,554.79236c-2.53904,12.81592 -6.14657,24.70164 -10.8226,35.65717l-59.43985,-12.47503l2.07194,-1.52295l5.10817,-8.06731l12.99597,-1.47824l9.08258,-4.65138l6.72193,-14.15478l14.31765,-6.04296l8.62739,-11.72702l6.66553,-7.69691l6.11276,-2.47045c1.26024,11.87488 0.77975,23.41817 -1.44146,34.62986z" fill="#d0d0ce" stroke="none" stroke-width="1"/><path d="M1031.73347,395.80277l83.87813,4.52328l-2.23404,41.42725l-7.99806,1.93529l-15.00168,2.25351l-14.20488,5.39371l-10.69569,3.84952l-10.31467,0.01876l-12.88208,6.94828l-13.89106,-4.33915z" fill="#d0d0ce" stroke="none" stroke-width="1"/><path d="M1121.87672,447.82486l39.2561,-24.33715l-0.01321,3.36905l-6.32361,5.16406l-5.24158,7.23473l-3.54337,8.44833l-6.25973,8.97284l-12.29978,7.28363l-0.13394,10.81387l-7.3798,8.03072z" fill="#d0d0ce" stroke="none" stroke-width="1"/><path d="M1332.63466,653.94223l32.30893,21.0881l1.7255,2.80498l2.4317,11.70838l5.65086,13.07256l-3.12712,13.53243l-4.7649,8.36432l2.0249,11.4064l-1.80118,12.39731l-6.66608,14.08924l-3.31545,7.81553l-140.722,-91.84952l65.31179,-100.06374l3.72952,3.47978l1.0176,10.59779l7.85765,3.3871l15.6898,5.67466l3.32568,16.43062l15.36198,6.57153l4.27593,9.7294l4.32044,12.0152l0.3515,0.10727z" fill="#d0d0ce" stroke="none" stroke-width="1"/><path d="M1593.86272,460.169l-16.81723,82.29934l-132.14516,-27.00284l-0.02956,-0.36631l9.5834,-8.4374l7.47426,-7.55516l0.45971,-16.70222l14.05516,-9.13663l-0.49486,-16.67713l0.2591,-8.55267l9.48036,-4.84473l1.86385,-4.74809z" fill="#d0d0ce" stroke="none" stroke-width="1"/><path d="M1859.68469,769.99518l-60.32092,0.56256l-2.47505,-5.29343l-1.15135,-8.69384l5.27363,-11.3865l-2.63004,-7.94815l-0.89766,-14.36235l0.37089,-13.42097l-1.86602,-12.02287l2.5405,-13.58287l10.35704,-11.50245z" fill="#d0d0ce" stroke="none" stroke-width="1"/><path d="M1837.80102,585.42635l4.0071,12.37841l11.53077,9.3121l3.87136,7.48996l9.11642,5.81972l-4.09348,12.3876l10.64556,12.88173l-0.24192,8.76304l4.02139,10.45073l-1.08226,16.5616l-9.67931,6.45026l5.59101,11.05222l-9.43905,7.44295l-3.70919,11.97909l-2.22218,2.53013l-24.21422,-138.59185z" fill="#d0d0ce" stroke="none" stroke-width="1"/><path d="M1822.44918,698.61302l17.27113,-8.91788l6.62909,2.58325l-0.00926,9.67355l8.38101,13.12827l0.96022,9.29688l-1.08942,10.25517l7.4886,12.81519l-7.7578,10.44636l0.51145,3.43884z" fill="#d0d0ce" stroke="none" stroke-width="1"/><path d="M2251.81755,366.55682l21.79127,37.99629l-1.34115,0.43479l-13.61724,8.84782l-10.66092,-10.86637l-11.04498,5.46738l-7.89562,-7.5164l-10.62664,1.95973l-11.20192,-0.2976l-7.2034,-4.57654l-12.11643,-5.52503l-11.68114,2.87942l-10.72082,-1.82498l-13.06554,1.14885l-6.30453,-2.7467z" fill="#d0d0ce" stroke="none" stroke-width="1"/><path d="M2881.86573,758.05852l32.62415,5.73097l-0.82084,0.21776l-12.36181,0.19689l-7.8055,6.66877l-9.61463,-2.10646l-4.6296,0.79228c1.17933,-4.38503 2.04873,-8.21844 2.60822,-11.50022z" fill="#d0d0ce" stroke="none" stroke-width="1"/><path d="M-870.54704,586.91666l4.10007,-8.18421" fill="none" stroke="none" stroke-width="1"/><path d="" fill="none" stroke="#00bb31" stroke-width="6" opacity="0"/><path d="M-873.97121,753.42971l-15.38499,8.78801" fill="none" stroke="none" stroke-width="1"/><path d="" fill="none" stroke="#00bb31" stroke-width="6" opacity="0"/><path d="M-719.08658,475.47101l-115.78465,231.11937c-8.51028,16.9875 -18.69486,30.43325 -30.55374,40.33726c-2.79905,2.33764 -5.6478,4.505 -8.54624,6.50207l-5.93218,-9.18904l-9.81924,0.07813l-6.32092,-8.27422l-12.82966,-2.73921l-3.56654,-9.62754l-11.89888,-1.84839l-10.92574,0.77624l-6.36555,-5.77272l-10.89581,-5.28118l7.36185,7.15498l4.26786,5.14001l-7.87857,3.26322l-13.46839,-7.97511l-8.40532,5.41762l-11.25595,3.20993l-9.97483,-0.70909l9.69119,4.69902l11.11413,-1.21496l8.2635,-3.42266l13.32658,9.97008l10.32937,-4.27832l14.10658,-1.00224l0.84316,0.13098l6.49646,6.05464l11.06268,3.67612l4.55394,9.21113l8.05226,0.85878l4.68302,10.48184c-4.65932,2.14308 -9.43317,3.89374 -14.32154,5.25197c-13.64297,3.7907 -27.76813,4.63686 -42.37548,2.53849c-14.60735,-2.09837 -28.91464,-6.65618 -42.92187,-13.67343c-14.30526,-7.16655 -26.55949,-16.00856 -36.76268,-26.52603c-10.20319,-10.51746 -17.87113,-22.3746 -23.00382,-35.5714c-3.59705,-9.24849 -5.65613,-19.09981 -6.17723,-29.55396l1.38244,0.07616l8.57095,7.62661l10.13507,-5.32557l14.57295,-0.95828l12.44402,2.61154l11.22267,-9.85476l9.93073,-7.59478l12.21677,-0.92224l9.60017,-4.01026c-0.56336,4.18153 -0.27139,8.39541 0.8759,12.64163c2.15532,7.97699 7.10733,13.90643 14.85601,17.78831c7.74868,3.88188 15.5373,4.33516 23.36586,1.35983c7.82856,-2.97533 13.68378,-8.33734 17.56566,-16.08602l37.63256,-75.11889l6.46778,-2.26061l12.05685,5.04162l12.92072,-7.0932l11.56535,-5.80824l-9.77371,2.23192l-12.0249,5.30504l-11.16103,-6.82978l-5.95099,1.22903l70.91665,-141.55772z" fill="#d0d0ce" stroke="none" stroke-width="1"/><path d="M-442.20948,614.06845c1.25834,21.96398 -0.50008,42.26446 -5.27524,60.90143c-4.77517,18.63697 -12.3604,34.84736 -22.75569,48.63118c-10.39529,13.78381 -23.70767,24.72983 -39.93714,32.83805c-16.22947,8.10822 -35.33573,12.62511 -57.31878,13.55066l-0.49918,0.0286c-24.27443,1.72459 -45.12652,-0.9204 -62.55627,-7.93495c-17.42975,-7.01455 -31.86484,-17.12212 -43.30527,-30.3227c-11.44043,-13.20058 -20.08813,-28.64791 -25.9431,-46.34199c-5.85497,-17.69408 -9.3449,-36.35835 -10.46977,-55.99282l-12.81218,-223.63329l84.54754,-4.84381l1.42396,1.60892l0.51499,0.52326l12.3123,214.90801c0.51477,8.98527 1.91612,17.41892 4.20403,25.30096c2.28791,7.88204 5.60018,14.70376 9.93682,20.46515c4.33663,5.76139 9.60014,10.21763 15.7905,13.36871c6.19037,3.15109 13.4454,4.48831 21.76509,4.01167c6.69243,-0.38342 12.56641,-1.85418 17.62194,-4.41229l3.58879,0.16796l10.31768,-5.11599l8.08587,8.84893l16.11664,-0.17918l7.35892,4.43627l10.81635,3.41344l15.242,3.80053l-12.82304,-6.98622l-9.60687,-5.00629l-6.14944,-6.02911l-14.90716,-1.41367l-6.87639,-10.44177l-7.2913,2.82035c1.30508,-1.70032 2.49885,-3.51513 3.58131,-5.44443c3.48387,-6.20943 5.91219,-13.36003 7.28494,-21.4518c1.37275,-8.09176 1.80174,-16.63028 1.28697,-25.61555l-8.75557,-152.82626l9.91337,3.37952l13.71078,0.15106l12.24447,4.68853l11.44186,0.1143l7.67072,6.22677l8.74834,2.29891l15.80437,-1.15782l8.30488,8.21171l0.17773,0.08191z" fill="#d0d0ce" stroke="none" stroke-width="1"/><path d="M-554.96493,676.72318l13.87206,-11.68476" fill="none" stroke="none" stroke-width="1"/><path d="" fill="none" stroke="#00bb31" stroke-width="6" opacity="0"/><path d="M-454.11453,390.61885l5.89983,93.22654l-0.17822,-0.08084l-8.35378,-8.16196l-15.79718,1.25219l-8.76191,-2.24662l-7.70777,-6.18085l-11.44234,-0.04597l-12.27226,-4.61532l-13.71144,-0.06918l-9.93338,-3.32026l-4.06887,-64.29452l33.19673,-2.10085l0.40584,3.11456l12.91337,8.82639l2.09239,12.41892l14.02511,6.88627l9.75213,7.92617l-5.76011,-8.17881l-12.0291,-7.01259l-0.09638,-12.54524l-10.91736,-8.95271l-0.01789,-3.13911z" fill="#d0d0ce" stroke="none" stroke-width="1"/><path d="M-507.24511,393.98121l10.36798,-0.65614" fill="none" stroke="none" stroke-width="1"/><path d="" fill="none" stroke="#00bb31" stroke-width="6" opacity="0"/><path d="M-282.58482,525.75663l6.83731,12.55011" fill="none" stroke="none" stroke-width="1"/><path d="" fill="none" stroke="#00bb31" stroke-width="6" opacity="0"/><path d="M-252.64356,580.71487l0.05701,-182.49999l89,0.0278l-0.02068,66.21436l-2.79691,-0.52875l-7.52039,8.68756l-8.9455,5.47042l-6.74776,10.72238l-12.71705,9.48777l-8.11113,10.82603l-2.22789,12.73499l-12.72344,9.08641l5.23964,11.80724l-6.26872,6.53895l-4.28909,12.71538l-2.68576,15.2647l-1.9757,9.19101l-2.50265,12.52637l-0.63302,10.70378l2.50872,12.70507l10.5508,10.47875l-1.73505,10.44695l5.56927,11.60324l7.4807,9.21456l7.85932,4.23519l12.35619,7.24791l6.84284,14.73619l15.74079,-3.37765l7.6624,-0.29376l-0.0261,83.55495l-85,-0.02655l-99.94283,-183.03123l-0.03993,127.82064l-2.55545,0.4889l-1.96377,12.88044l-11.03137,11.21351l-8.40313,7.51343l8.40188,-3.51343l11.03075,-9.21351l1.96315,-10.88044l2.55533,-0.09438l-0.01461,46.78483l-89,-0.0278l0.1162,-371.99998l85.5,0.02671l69.50173,127.57284l-2.098,1.04099l-1.8134,10.45663l-12.79375,8.35142l-7.23421,12.60484l-6.99976,9.00692l2.1577,13.49479l-4.32528,10.3061l6.23891,-6.79355l-1.20088,-11.73852l7.95657,-7.25064l8.19103,-10.84856l13.75056,-6.59514l2.77022,-8.70036l2.23757,-0.78479z" fill="#d0d0ce" stroke="none" stroke-width="1"/><path d="M-348.68551,715.00552l-0.00262,8.39452" fill="none" stroke="none" stroke-width="1"/><path d="" fill="none" stroke="#00bb31" stroke-width="6" opacity="0"/><path d="M-56.63138,672.72702l7.24939,5.18136" fill="none" stroke="none" stroke-width="1"/><path d="" fill="none" stroke="#00bb31" stroke-width="6" opacity="0"/><path d="M30.64275,513.48313l-8.08914,-10.63365" fill="none" stroke="none" stroke-width="1"/><path d="" fill="none" stroke="#00bb31" stroke-width="6" opacity="0"/><path d="M110.16576,589.38497l-17.01653,128.88149c-7.45691,8.09355 -16.12034,15.77564 -25.99029,23.04625c-9.86995,7.27062 -20.58949,13.33632 -32.15863,18.19712c-11.56913,4.8608 -24.04866,8.34055 -37.43858,10.43924c-13.38992,2.0987 -27.18988,2.20996 -41.39989,0.33378l-0.4957,-0.06545c-22.14118,-2.92335 -41.15868,-9.13277 -57.05251,-18.62824c-15.89383,-9.49548 -28.69044,-21.43994 -38.38984,-35.8334c-9.6994,-14.39346 -16.51046,-30.92726 -20.43316,-49.60139c-3.92271,-18.67414 -4.8183,-38.62973 -2.68677,-59.86678l10.07902,-76.3375c0.98242,-7.44078 2.36526,-14.68664 4.1485,-21.73759l7.50461,-2.5666l11.04702,-3.57022l12.52575,0.50502l8.04655,-2.81931l7.7543,-6.17904l14.97734,-6.68591l0.63759,-10.87807l7.22603,-11.68665l0.56759,-9.44923l-4.9093,-13.22843l-2.13324,-9.98127l-0.16862,-13.90173c8.84824,-5.28824 18.50275,-9.55682 28.96352,-12.80572c18.23137,-5.6623 38.58288,-7.00996 61.05452,-4.04297l0.4957,0.06545c22.34075,3.95838 40.08628,10.25202 53.2366,18.88093c13.15032,8.6289 23.34988,17.96095 30.59868,27.99613c7.2488,10.03518 12.43219,19.79767 15.55017,29.28745c3.11798,9.48978 6.00206,16.93132 8.65223,22.32463l-74.36211,36.07667c-1.17237,-3.85328 -2.52715,-8.23498 -4.06432,-13.1451c-0.95834,-3.06118 -2.25475,-6.03631 -3.88923,-8.92539l2.15226,-4.49947l-6.55941,-8.80064l4.55595,-13.53866l0.58076,-14.63314l-0.49003,-11.65767l-0.21722,-13.29445l-2.78519,10.65144l-1.01118,10.33616l-2.08196,13.31163l-6.05715,12.21715l5.0582,7.47913l-1.23417,1.79487c-2.35455,-2.32767 -5.03064,-4.50576 -8.02824,-6.53426c-5.24704,-3.5507 -12.16661,-5.89327 -20.75871,-7.02771c-16.52327,-2.18161 -30.3901,1.61931 -41.60051,11.40275c-11.2104,9.78344 -18.01549,23.76296 -20.41526,41.93855l-9.48999,71.87621c-1.16367,8.81348 -0.80187,17.25428 1.08538,25.32239l-8.75242,5.62674l-3.39977,14.007l-5.07458,12.91384l-3.62521,12.17344l5.05001,-8.4358l5.78698,-11.04502l4.11217,-12.13818l8.76455,-3.84455c1.78031,4.54239 4.02555,8.70017 6.73572,12.47333c2.99024,4.1631 6.46521,7.88603 10.42489,11.1688l-2.69021,6.95139l6.63112,10.65043l7.28223,14.59708l5.05337,14.54701l-1.47775,-12.75399l-5.49442,-13.70057l-4.8433,-9.75392l2.78836,-5.35608c6.17847,3.74363 13.12245,6.1244 20.83195,7.1423c11.52266,1.85759 21.12009,1.1074 28.79232,-2.25055c7.67222,-3.35796 13.76221,-8.10162 18.26998,-14.23097l2.42158,-18.34083l-39.16014,-5.17041l9.42454,-71.38052z" fill="#d0d0ce" stroke="none" stroke-width="1"/><path d="M-76.65371,639.82743l2.86173,9.25747" fill="none" stroke="none" stroke-width="1"/><path d="" fill="none" stroke="#00bb31" stroke-width="6" opacity="0"/><path d="M310.77782,540.92613l-1.24735,1.23631" fill="none" stroke="none" stroke-width="1"/><path d="" fill="none" stroke="#00bb31" stroke-width="6" opacity="0"/><path d="M310.51636,710.84294l0.01296,-8.42488" fill="none" stroke="none" stroke-width="1"/><path d="" fill="none" stroke="#00bb31" stroke-width="6" opacity="0"/><path d="M310.9975,398.16452l83.9999,0.12926l-0.57242,371.99956l-83.9999,-0.12926l0.09128,-59.32114l2.98802,-0.7833l9.00387,-15.66145l12.71642,3.3968l12.36676,-6.13998l-12.3606,2.13998l-12.71334,-5.3968l-9.00079,13.66145l-2.98736,0.35841l0.11734,-76.25381l-99.49988,-0.15311l-0.22158,143.99983l-83.9999,-0.12926l0.12431,-80.78375l6.56155,-3.48508l11.58659,-6.98219l8.96575,-8.04577l14.31333,-1.53445l-14.30717,-2.46554l-8.96267,6.04577l-11.58351,4.98219l-6.55936,2.0606l0.20056,-130.33801l5.74138,-3.81832l9.39541,-3.42308l11.43667,4.04119l7.53722,-3.26325l8.46147,-12.88333l8.84983,-4.6551l9.99694,1.2184l12.99941,-8.16267l9.63715,-5.04021l-0.0441,28.66213l98.25444,0.15119l-2.08249,2.06405l-6.05496,7.32579l-0.01847,11.99999l6.05804,-9.32579l6.47926,-8.41884l10.62698,2.88587l10.88502,-6.05468l11.43681,-10.61799l-11.43065,6.618l-10.88195,4.05468l-10.6239,-4.88587l-3.14634,3.11848z" fill="#d0d0ce" stroke="none" stroke-width="1"/><path d="M127.0496,689.09796l0.0145,-9.42446" fill="none" stroke="none" stroke-width="1"/><path d="" fill="none" stroke="#00bb31" stroke-width="6" opacity="0"/><path d="M588.05461,672.22925l-18.36007,-0.01784" fill="none" stroke="none" stroke-width="1"/><path d="" fill="none" stroke="#00bb31" stroke-width="6" opacity="0"/><path d="M724.41396,770.36176l-95.49995,-0.09277l-33.40478,-98.0325l-7.45461,-0.00724l-1.93125,-1.59419l-11.50462,-8.22612l-4.20642,-16.69585l-12.58076,-4.78491l-3.69525,-8.10872l0.00841,-8.66025l-7.07245,-0.43141l-0.07242,-0.09321l-3.51718,-2.4087l-4.05212,-5.58098l-4.27351,-2.05275l-2.5793,-6.92097l-13.72995,-3.37956l9.72995,3.37567l0.66361,4.0833l-1.56365,-0.75109l-9.15623,-4.14287l-8.88395,-8.60671l-8.65539,-5.00841l-13.16296,2.78144l11.1596,0.68071l7.65371,6.73949l7.88227,10.33779l8.15455,5.87395l11.75285,5.64539l5.78649,7.96973l3.75387,0.22898l0.17381,0.31074l1.69525,8.10678l10.58076,4.78296l2.20642,16.6939l9.50462,8.22417l1.57117,1.59384l-46.68528,-0.04535l-33.09519,97.9679l-95.49995,-0.09277l94.2153,-320.38837l2.09392,-0.56442l14.32352,-1.05871l13.42588,-4.16262l15.87497,0.11699l7.94234,-11.06911l8.54474,0.29003l11.38959,-0.69306l6.91267,-7.63047l10.13888,5.00834l9.12296,-7.29383l14.19498,-4.6936l9.43458,0.11451l7.72687,-6.12883z" fill="#d0d0ce" stroke="none" stroke-width="1"/><path d="M789.33199,623.94205l5.47732,6.3945" fill="none" stroke="none" stroke-width="1"/><path d="" fill="none" stroke="#00bb31" stroke-width="6" opacity="0"/><path d="M985.57038,701.4946l-13.85777,17.10323" fill="none" stroke="none" stroke-width="1"/><path d="" fill="none" stroke="#00bb31" stroke-width="6" opacity="0"/><path d="M902.93487,669.7167c11.53631,-8.56493 18.20137,-19.10193 19.9952,-31.61099c1.79382,-12.50906 0.7946,-24.8202 -2.99767,-36.93341l28.67935,-5.77948l7.6044,6.18543l9.85405,-5.57359l9.94266,4.92281l9.6361,-7.84188l15.6281,1.35047l-1.66656,-9.32054l1.73049,-0.34873c1.62482,6.50845 3.38454,15.09587 5.27914,25.76224c1.89461,10.66638 1.97198,22.66989 0.23211,36.01053c-1.73986,13.34065 -6.38145,27.52094 -13.92476,42.54087c-2.08347,4.14851 -4.53583,8.28656 -7.3571,12.41415l-9.57582,6.06622l-14.44773,-3.19704l-14.98319,4.78502l-7.99266,-9.77975l-15.71322,0.72706l-7.62473,-1.25376l-13.49836,1.67162l-11.67358,0.85297l-1.23148,1.81001l-7.855,-4.55604l-12.98768,4.91888l-13.65077,-0.13684l-15.39539,1.52727l12.67569,1.40585l12.29092,1.6034l11.62783,-3.45232l8.18707,6.19645l-2.24769,3.30361l-9.62697,5.41492l-9.03016,1.85911l-5.25252,7.83652l-12.77346,5.7305l-10.85494,2.67775l12.49222,0.97181l13.59211,-3.90572l6.07116,-6.01174l9.8488,-0.03433l10.44561,-3.59014l7.79138,-11.45164l6.60233,-0.7346l8.45734,-1.6079l5.65147,-0.69987l12.80321,0.65964l6.63281,11.24631l13.62334,-3.31846l13.08788,4.6636l9.76617,-5.5817l0.91023,0.48652c-4.74521,5.05957 -10.0526,10.1032 -15.92215,15.13088l-0.37974,0.32527c-19.23996,16.48034 -37.98091,27.26642 -56.22283,32.35824c-18.24192,5.09182 -35.86784,6.03505 -52.87774,2.82969c-17.0099,-3.20536 -33.21418,-9.95365 -48.61283,-20.24488c-15.39865,-10.29122 -29.76627,-22.45313 -43.10284,-36.48572l-50.09156,-58.47936c-11.6734,-14.1405 -21.09562,-29.88012 -28.26666,-47.21886c-7.17104,-17.33874 -10.94337,-35.06501 -11.31699,-53.17883c-0.37363,-18.11382 3.25686,-36.03649 10.89146,-53.76803c7.6346,-17.73154 20.18583,-34.07851 37.65369,-49.04092l0.37974,-0.32527c15.4426,-13.22764 30.57656,-22.46025 45.40188,-27.69782c14.82532,-5.23757 29.15263,-7.85407 42.98195,-7.84949c1.73108,0.00057 3.45024,0.03542 5.1575,0.10453l1.55365,6.40742l6.64384,7.71564l10.34518,10.24363l3.89285,15.0452l13.02462,8.71215l3.27871,9.66326l-0.43065,13.07268l7.23716,6.22885l1.20489,2.27168l-7.71433,20.93417c-5.42218,-3.25575 -11.52239,-6.15018 -18.30063,-8.68328c-6.77824,-2.5331 -13.69239,-4.07198 -20.74245,-4.61665c-7.05006,-0.54466 -13.95589,0.10384 -20.7175,1.94551c-6.76161,1.84167 -12.69214,5.16597 -17.7916,9.97291c-12.04364,12.0718 -17.96866,26.03474 -17.77506,41.88881c0.1936,15.85407 6.25368,30.74293 18.18024,44.66659l20.0576,23.41623l-1.49907,2.85663l-0.04286,17.29789l-11.58261,11.31173l-1.95551,9.96848l4.55767,-6.93059l12.88369,-9.79278l1.34394,-15.77894l1.77207,-2.53791l21.62921,25.25101c11.92656,13.92366 25.87966,22.27107 41.85928,25.04222c15.97963,2.77116 30.85865,-0.86653 44.63706,-10.91308z" fill="#d0d0ce" stroke="none" stroke-width="1"/><path d="M1165.28804,559.19864l-7.22419,9.76219" fill="none" stroke="none" stroke-width="1"/><path d="" fill="none" stroke="#00bb31" stroke-width="6" opacity="0"/><path d="M1284.58486,397.99051l-119.29682,161.20813l-1.0114,-0.30586l-12.46298,-0.97031l-12.06535,3.13358l-9.74573,-5.61967l-10.78065,1.3034l-13.89899,-1.30333l11.51959,4.51867l9.59094,0.30427l8.55603,7.22734l10.87564,-1.52591l11.27327,2.57798l0.92543,0.42202l-11.66467,15.7627l38.03849,50.95202l-0.55347,4.63103l2.19851,11.4521l-7.07639,7.21227l2.94255,12.65477l-3.96063,14.77096l6.35355,-11.56567l-1.74609,-11.05212l8.27285,-5.60962l-1.00205,-9.84946l0.90795,-4.15621l93.93696,125.82723l-103.99985,0.17517l-60.1355,-80.39883l0.13559,80.49989l-83.99988,0.14148l-0.52196,-309.89901l14.11058,3.56108l12.47636,-7.65291l10.29772,-0.59151l10.46542,-4.43751l13.88345,-6.17419l14.85339,-3.08308l7.87825,-2.37644l0.07581,45.01249l40.32319,-57.85942l10.49877,-2.95463l5.79645,-9.13011l14.29213,0.26636l10.04087,-4.34476l7.45416,-5.3259l8.26128,-3.40099l8.09377,-1.07067l1.78161,-2.85947z" fill="#d0d0ce" stroke="none" stroke-width="1"/><path d="M1184.43767,635.67554l6.3368,8.48805" fill="none" stroke="none" stroke-width="1"/><path d="" fill="none" stroke="#00bb31" stroke-width="6" opacity="0"/><path d="M1535.31337,626.30927l-12.28345,-0.02816" fill="none" stroke="none" stroke-width="1"/><path d="" fill="none" stroke="#00bb31" stroke-width="6" opacity="0"/><path d="" fill="none" stroke="none" stroke-width="1"/><path d="M1386.49765,640.49997l0.0356,-15.52713" fill="none" stroke="none" stroke-width="1"/><path d="" fill="none" stroke="#00bb31" stroke-width="6" opacity="0"/><path d="M1470.72336,542.16095l105.99972,0.24305l-0.1926,83.99978l-41.2171,-0.09451l-0.39236,-2.01424l-5.63716,-11.24937l-9.88346,-8.6095l-5.31587,-12.62661l-12.22456,-4.79909l-4.82403,-15.91134l0.82404,15.90217l10.22456,4.7945l3.31587,12.62202l7.88347,8.60492l3.63716,11.24478l0.10887,2.01359l-52.49916,-0.12038l-0.13757,59.99984l62.59003,0.14351l4.79074,12.44569l6.22095,7.40105l7.27644,11.38677l2.53926,13.41015l1.46073,-13.40098l-5.27644,-11.38218l-4.22096,-7.39647l-3.08429,-12.44178l71.70316,0.16441l-0.1926,83.99978l-227.9994,-0.52278l0.29686,-129.46777l12.06418,-1.27625l7.34321,-7.00923l10.7712,-0.82466l3.4765,-1.39533l12.80921,-3.9905l11.45112,-6.8463l2.63005,-3.44181l4.79096,-1.79705l10.37065,-11.30294l-10.36148,7.30295l-0.43805,0.08863l0.99396,-1.30074l6.54422,-9.06494l5.82329,-8.37193l8.53947,-2.66033l2.33033,-10.56265l-5.10236,7.67893l-9.92549,1.21847l-7.20931,6.93007l-6.54422,9.06494l-7.17556,9.39027l-11.32597,1.33553l-11.6544,7.72477l-10.76661,-1.17533l-7.33862,5.00924l-12.06068,-0.25091l0.13519,-58.95988l8.36035,-1.47625l15.4468,-2.08323l11.37815,-5.2417l8.46321,-7.91077l9.61005,-0.55955l13.0523,-4.74794l7.88565,-11.8592l8.4949,-8.41641l1.41262,-2.97485z" fill="#d0d0ce" stroke="none" stroke-width="1"/><path d="M1532.98321,686.30409l9.70643,0.02226" fill="none" stroke="none" stroke-width="1"/><path d="" fill="none" stroke="#00bb31" stroke-width="6" opacity="0"/><path d="M1817.46121,601.40836l-13.72441,11.52791" fill="none" stroke="none" stroke-width="1"/><path d="" fill="none" stroke="#00bb31" stroke-width="6" opacity="0"/><path d="M1733.93343,580.90305l31.5013,8.60084" fill="none" stroke="none" stroke-width="1"/><path d="" fill="none" stroke="#00bb31" stroke-width="6" opacity="0"/><path d="" fill="none" stroke="none" stroke-width="1"/><path d="" fill="none" stroke="none" stroke-width="1"/><path d="M1746.84443,398.27186l24.11008,2.59534" fill="none" stroke="none" stroke-width="1"/><path d="" fill="none" stroke="#00bb31" stroke-width="6" opacity="0"/><path d="M1762.89451,770.05708l-50.6341,-120.73602l-0.99999,0.00525l0.63479,120.99833l-83.99884,0.44068l-1.95159,-371.99488l113.49844,-0.59544c2.51671,-0.0132 4.98378,0.01909 7.40122,0.09687l9.04722,7.57417l-5.22321,15.33044l10.38095,7.94734l-0.92892,12.08097l6.78706,9.96822l5.38625,12.4254l1.19544,6.64587l2.70955,9.93269l4.13794,1.94106l0.9728,3.70177l2.22867,12.25318l7.84343,13.8262l5.29437,8.30332l-4.06247,12.32389l8.01659,-11.71975l-3.31731,-8.00125l-5.86638,-13.52414l-0.22903,-10.87861l9.51645,9.74739l11.90976,9.33583l-9.04763,-12.13015l-8.34905,-11.41461l-4.20922,-4.31137l-0.00262,-0.12864l-4.90188,-13.78823l-3.40919,-12.12333l-4.81,-9.66615l2.90598,-11.7789l-8.40389,-7.64527l7.20027,-15.02837l-8.66183,-8.60365c8.01319,1.57186 15.27623,3.8313 21.78912,6.7783c14.20057,6.42559 25.57922,15.03268 34.13593,25.82127c8.55672,10.78859 14.70642,23.42317 18.4491,37.90373c3.74269,14.48056 5.656,29.72074 5.73994,45.72052c0.08744,16.66644 -2.58471,31.51399 -8.01643,44.54267c-5.43172,13.02868 -11.87436,23.97929 -19.32792,32.85185c-2.08031,2.47635 -4.16799,4.78396 -6.26305,6.92283l-12.66518,4.56543l-9.84137,-6.95614l-13.68011,-5.14947l-12.47566,-2.59031l-7.69602,-4.0583l-7.35734,-4.9992l-8.71206,-1.23559l-14.4326,-0.10628l-12.64447,-3.93918l9.25983,6.0709l12.74028,1.17214l7.01974,2.30145l3.5357,3.78537l-7.52385,-2.94272l-12.49294,6.15844l-9.32569,-3.16725l-13.39813,7.24501l-12.85573,2.17492l13.21851,1.80859l13.57952,-5.25326l9.50708,5.15901l12.67434,-4.16668l8.32981,3.25795l9.8038,-1.7229l7.39966,2.5089l11.98779,6.21533l8.14905,8.022l11.27229,-3.60751l2.89934,0.97725c-0.88449,0.58529 -1.77026,1.1414 -2.6573,1.66833c-7.64295,4.54016 -13.63107,6.82161 -17.96434,6.84434l25.87784,50.24457l-10.40388,11.4601l-2.5959,13.5724l1.81696,12.03038l-0.42563,13.41934l0.83906,14.36589l2.59759,7.95881l-5.32004,11.36489l1.11588,8.69847l2.45343,5.30348z" fill="#d0d0ce" stroke="none" stroke-width="1"/><path d="" fill="none" stroke="none" stroke-width="1"/><path d="M1904.9261,633.62224l5.59274,-10.9519" fill="none" stroke="none" stroke-width="1"/><path d="" fill="none" stroke="#00bb31" stroke-width="6" opacity="0"/><path d="" fill="none" stroke="none" stroke-width="1"/><path d="M2041.88123,550.13039l-2.938,5.75329" fill="none" stroke="none" stroke-width="1"/><path d="" fill="none" stroke="#00bb31" stroke-width="6" opacity="0"/><path d="M2018.80106,398.08335l16.9723,8.66714" fill="none" stroke="none" stroke-width="1"/><path d="" fill="none" stroke="#00bb31" stroke-width="6" opacity="0"/><path d="M2014.65054,395.96383l15.78304,8.05983" fill="none" stroke="none" stroke-width="1"/><path d="" fill="none" stroke="#00bb31" stroke-width="6" opacity="0"/><path d="M1948.62688,362.24793l66.02365,33.7159l5.75772,9.95517l0.70704,10.45311l1.68852,11.4713l-2.36588,14.39737l-1.06699,6.57862l4.22513,11.9226l3.32546,2.21083l-0.23556,9.28443l-7.2549,8.3066l3.50552,15.94377l0.05686,-14.12459l9.03609,-7.39701l1.04208,-6.56305l5.01552,7.66902l2.55389,8.15338l11.84308,2.17751l6.32311,6.48215l-3.16884,-8.94195l-10.26594,-3.4074l-0.97676,-9.38328l-5.01369,-11.30765l-7.34161,-4.88086l-2.69648,-8.17517l4.14707,-13.48778l0.09268,-10.56171l1.07415,-9.54352l-4.22421,-9.17207l143.5141,73.28747l-38.2028,74.81007l-75.25536,-38.4302l-18.60828,36.43939l-3.50107,-0.55723l-10.59206,2.00227l-9.05463,3.06898l7.23545,0.49341l9.68247,-0.22108l3.29184,0.96694l-109.43475,214.29897l-74.81007,-38.2028l50.22769,-98.35762l2.05848,0.95576l10.13296,-7.39699l14.4877,-0.61199l24.77496,-5.01296l9.2076,3.7994l-7.38842,-7.36178l-22.95578,1.45057l-13.57811,-1.1692l-9.22337,5.6158l-1.92328,-1.22051l7.53558,-14.75644l3.29693,-0.68548l10.16665,-7.34139l12.01747,-0.27156l2.17818,-12.19289l11.61255,0.66609l10.82305,-12.5825l3.07068,-10.76849l5.46241,-6.85649l-0.76051,-16.69397l10.71934,-7.43673l-3.78499,-10.13174l1.41028,-8.31252l-3.6142,-14.37399l4.24119,-12.30017l-2.85331,-6.01724l3.63931,-7.12662l-12.39076,-6.32751l-2.41938,-2.49676l0.21798,-13.01009l-13.55311,-6.05156l-5.09005,-8.96921l-6.19743,-6.99614l-14.4608,-5.78602l-5.62901,-7.86715l-6.89269,1.76318z" fill="#d0d0ce" stroke="none" stroke-width="1"/><path d="M2274.90009,672.15612l-25.30942,-0.05433" fill="none" stroke="none" stroke-width="1"/><path d="" fill="none" stroke="#00bb31" stroke-width="6" opacity="0"/><path d="M2327.62884,461.44056l4.90718,16.88164" fill="none" stroke="none" stroke-width="1"/><path d="" fill="none" stroke="#00bb31" stroke-width="6" opacity="0"/><path d="M2326.67931,458.17398l4.12925,14.20541" fill="none" stroke="none" stroke-width="1"/><path d="" fill="none" stroke="#00bb31" stroke-width="6" opacity="0"/><path d="M2417.45572,770.46235l-95.49978,-0.205l-33.28956,-98.07168l-13.76629,-0.02955l-3.45218,-4.47789l-3.87883,-8.58773l-6.8894,-12.70313l-4.65431,-12.63726l-6.60047,-7.32572l-0.53891,-15.64783l-1.81496,-9.71634l-8.40881,-3.36035l-4.66346,-2.49246l-0.3512,-5.85344l-5.62739,-9.98149l-12.81922,-8.85121l-2.77401,-15.7137l-4.68122,-15.29517l0.68123,15.28659l0.77402,15.70941l10.81923,8.84692l3.62739,9.9772l-0.19569,1.6448l-3.37116,-0.94087l-8.75858,-6.9489l-9.8837,1.5207l-6.11277,-5.5348l4.22731,9.06255l8.94097,0.24317l7.81585,8.71277l6.03109,3.22341l-0.02266,0.1905l12.56778,10.24067l-1.46108,15.64354l4.60047,7.32143l2.65431,12.63296l4.88941,12.69883l1.87884,8.58344l2.1427,4.47508l-33.42412,-0.07175l-33.21029,97.92894l-95.49978,-0.205l109.79826,-371.76517l3.30615,0.0071l5.47996,4.15469l12.96843,1.96163l9.98909,4.29936l12.03071,-0.04638l10.47372,8.22405l5.92244,6.14478l10.8165,2.92832l10.78921,0.59899l5.90256,9.16497l12.02216,-2.71137l7.8008,13.07214l15.31842,-5.39065l1.40584,-0.10659l5.19858,17.88412l-2.59521,5.81251l-10.05793,9.39502l1.44081,15.78086l-9.70303,12.20109l-13.57379,4.13777l-5.92927,13.86203l-5.47269,16.22532l6.5892,-12.38431l6.48752,-11.94152l6.29544,-0.98773l0.7492,2.9512l-5.96363,10.02173l8.04354,11.97086l0.03633,9.99993l-3.94911,14.01444l4.03267,8.98541l-2.94912,14.01081l-0.9673,9.00357l4.04357,11.98539l-4.96,11.01809l8.95998,-11.03263l-2.04358,-11.99265l2.96728,-9.01084l2.94912,-14.01081l-4.03267,-8.98541l3.94911,-14.01444l-0.03633,-9.99993l-8.04354,-11.97086l5.96363,-10.02173l-1.04854,-4.13033l0.136,-0.02134l10.26129,-10.28059l-0.88256,-13.86036l10.61618,-7.47451l2.81667,-5.05065z" fill="#d0d0ce" stroke="none" stroke-width="1"/><path d="M2542.71938,678.78426l14.12286,2.02163" fill="none" stroke="none" stroke-width="1"/><path d="" fill="none" stroke="#00bb31" stroke-width="6" opacity="0"/><path d="M2853.88139,770.27381l-129.99975,-0.25323c-8.98765,-6.35085 -17.72286,-13.95122 -26.20564,-22.80109c-7.21533,-7.52758 -13.64547,-15.77712 -19.29041,-24.74864l5.80412,-2.97342l7.97124,-5.57391l12.04365,-4.22288l8.19426,7.90927l3.83039,12.40818l5.34785,13.34245l-1.36085,-13.02027l-1.83689,-12.24709l-7.08114,-8.24484l9.39634,0.75929l12.46616,-9.17872l11.77014,1.93929l14.04413,-1.80486l9.87065,-3.83818l9.3855,5.52591l14.0056,-1.19533l13.13022,-1.63013l14.00238,1.97729l14.13086,0.59193l8.49787,4.30778l12.01764,-5.99019z" fill="#d0d0ce" stroke="none" stroke-width="1"/><path d="M2704.20461,709.70065l7.09363,0.14769" fill="none" stroke="none" stroke-width="1"/><path d="" fill="none" stroke="#00bb31" stroke-width="6" opacity="0"/><path d="M2689.73119,677.34638c-4.76287,11.60979 -11.14547,22.88408 -19.14781,33.82287c-8.00234,10.93878 -17.6981,20.75936 -29.08727,29.46172l-0.3973,0.30357c-17.74592,13.5595 -35.59912,22.58644 -53.55958,27.08083c-17.96046,4.49439 -35.45603,5.06779 -52.4867,1.72021c-17.03067,-3.34759 -33.52649,-10.25011 -49.48747,-20.70756c-15.96098,-10.45745 -30.68251,-23.95946 -44.16459,-40.50603l-46.74991,-61.1837c-12.14283,-15.89187 -21.29475,-32.81057 -27.45574,-50.75611c-6.16099,-17.94553 -8.70456,-35.82347 -7.63072,-53.6338c1.07384,-17.81033 6.06868,-35.15577 14.9845,-52.03631c8.91582,-16.88054 22.37912,-32.20175 40.38991,-45.96363l0.3973,-0.30357c18.61793,-12.96729 35.62967,-21.03665 51.03521,-24.20811c15.40554,-3.17145 29.21748,-3.76186 41.4358,-1.77122c12.21832,1.99064 22.78124,5.24615 31.68875,9.76655c3.97274,2.01609 7.62492,3.77646 10.95653,5.28109l0.03765,4.69675l-3.62485,9.15088l5.32708,8.77613l-1.79315,12.23265l0.08296,0.84517l-16.30042,46.76844c-3.55051,-1.90161 -7.60324,-4.04872 -12.15818,-6.44135c-4.55495,-2.39263 -9.56968,-4.01444 -15.04418,-4.86544c-5.47451,-0.851 -11.32323,-0.68194 -17.54616,0.50719c-6.22293,1.18912 -12.77764,4.41463 -19.66411,9.67652c-13.24323,10.11903 -20.38172,22.60014 -21.41547,37.44333c-0.15568,2.23532 -0.17342,4.46751 -0.05321,6.69657l-0.32462,0.1972l-6.03083,11.93065l-14.84009,5.0461l-6.11255,13.3425l-10.41588,7.66588l11.49741,-3.81487l6.65332,-11.41699l15.38085,-3.1206l5.88021,-8.95252c2.28562,8.89766 6.78933,17.74505 13.51114,26.54219l44.01778,57.60803c5.46428,7.15134 11.76628,12.92846 18.906,17.33135c5.34669,3.29717 10.77888,5.70561 16.29658,7.22531l5.22151,10.49923l-1.46397,9.75116l8.76672,10.90573l4.68975,11.52083l5.99741,12.05938l12.53429,9.81111l-8.54126,-9.57499l-4.0009,-11.94132l-2.69324,-11.40277l-6.77021,-10.78767l3.46048,-9.6331l-3.07772,-9.18596c4.64065,0.09468 9.30836,-0.3535 14.00312,-1.34453c7.58596,-1.60135 14.68975,-4.93178 21.31136,-9.99129c9.47264,-6.81846 15.74078,-14.12489 18.80442,-21.91932c3.06364,-7.79442 4.02841,-15.45337 2.89431,-22.97685l-11.23212,-14.69998l-31.38645,23.9821l-43.71421,-57.21074l40.55484,-30.98759l12.06767,5.88875l1.75473,9.36438l8.13165,11.57186l6.95428,12.31317l9.28558,9.4254l9.47343,10.38459l1.32854,10.8101l9.0534,5.49521l9.98049,10.04414l5.62569,10.51897l14.87048,4.30379l8.44292,13.06334l11.55602,7.55715l9.27439,2.93169l5.89204,2.79516c-0.64679,1.74599 -1.32601,3.48632 -2.03765,5.22099z" fill="#d0d0ce" stroke="none" stroke-width="1"/><path d="M2478.78919,560.03866l-30.48915,-0.83863l-0.32462,0.1972l-6.03083,11.93065l-14.84009,5.0461l-6.11255,13.3425l-10.41588,7.66588l11.49741,-3.81487l6.65332,-11.41699l15.38085,-3.1206l5.88021,-8.95252" fill="#00bb31" stroke="none" stroke-width="1"/><path d="M2493.78919,560.03866c0,-3.31371 2.68629,-6 6,-6c3.31371,0 6,2.68629 6,6c0,3.31371 -2.68629,6 -6,6c-3.31371,0 -6,-2.68629 -6,-6z" fill="#00bb31" stroke="none" stroke-width="1"/><path d="M2522.28919,539.03866c0,-3.31371 2.68629,-6 6,-6c3.31371,0 6,2.68629 6,6c0,3.31371 -2.68629,6 -6,6c-3.31371,0 -6,-2.68629 -6,-6z" fill="#00bb31" stroke="none" stroke-width="1"/><path d="M2449.14396,564.6387l29.64523,-4.60004v-15l21,-21h57l-28.5,36h-28.5" fill="none" stroke="#00bb31" stroke-width="6"/><path d="M2478.78919,560.03866l21,-21h28.5" fill="none" stroke="#00bb31" stroke-width="6"/><path d="M2708.18856,688.77905l-3.98395,20.9216l8.19426,7.90927l3.83039,12.40818l5.34785,13.34245l-1.36085,-13.02027l-1.83689,-12.24709l-7.08114,-8.24484" fill="#00bb31" stroke="none" stroke-width="1"/><path d="M2728.18856,688.77905c0,-3.31371 2.68629,-6 6,-6c3.31371,0 6,2.68629 6,6c0,3.31371 -2.68629,6 -6,6c-3.31371,0 -6,-2.68629 -6,-6z" fill="#00bb31" stroke="none" stroke-width="1"/><path d="M2760.68856,662.77905c0,-3.31371 2.68629,-6 6,-6c3.31371,0 6,2.68629 6,6c0,3.31371 -2.68629,6 -6,6c-3.31371,0 -6,-2.68629 -6,-6z" fill="#00bb31" stroke="none" stroke-width="1"/><path d="M2707.75142,709.7745l0.43714,-20.99545v-15l26,-26h65l-32.5,41h-32.5" fill="none" stroke="#00bb31" stroke-width="6"/><path d="M2708.18856,688.77905l26,-26h32.5" fill="none" stroke="#00bb31" stroke-width="6"/><path d="M2555.16548,642.17852l-12.4461,36.60574l5.22151,10.49923l-1.46397,9.75116l8.76672,10.90573l4.68975,11.52083l5.99741,12.05938l12.53429,9.81111l-8.54126,-9.57499l-4.0009,-11.94132l-2.69324,-11.40277l-6.77021,-10.78767l3.46048,-9.6331l-3.07772,-9.18596" fill="#00bb31" stroke="none" stroke-width="1"/><path d="M2580.16548,642.17852c0,-3.31371 2.68629,-6 6,-6c3.31371,0 6,2.68629 6,6c0,3.31371 -2.68629,6 -6,6c-3.31371,0 -6,-2.68629 -6,-6z" fill="#00bb31" stroke="none" stroke-width="1"/><path d="M2608.16548,611.17852c0,-3.31371 2.68629,-6 6,-6c3.31371,0 6,2.68629 6,6c0,3.31371 -2.68629,6 -6,6c-3.31371,0 -6,-2.68629 -6,-6z" fill="#00bb31" stroke="none" stroke-width="1"/><path d="M2549.78081,679.79507l5.38467,-37.61656v-19l31,-31h56l-28,50h-28" fill="none" stroke="#00bb31" stroke-width="6"/><path d="M2555.16548,642.17852l31,-31h28" fill="none" stroke="#00bb31" stroke-width="6"/><path d="M2330.80856,472.3794l-2.81667,5.05065l-10.61618,7.47451l0.88256,13.86036l-10.26129,10.28059l-0.136,0.02134l1.04854,4.13033l-5.96363,10.02173l8.04354,11.97086l0.03633,9.99993l-3.94911,14.01444l4.03267,8.98541l-2.94912,14.01081l-2.96728,9.01084l2.04358,11.99265l-8.95998,11.03263l4.96,-11.01809l-4.04357,-11.98539l0.9673,-9.00357l2.94912,-14.01081l-4.03267,-8.98541l3.94911,-14.01444l-0.03633,-9.99993l-8.04354,-11.97086l5.96363,-10.02173l-0.7492,-2.9512l-6.29544,0.98773l-6.48752,11.94152l-6.5892,12.38431l5.47269,-16.22532l5.92927,-13.86203l13.57379,-4.13777l9.70303,-12.20109l-1.44081,-15.78086l10.05793,-9.39502l2.59521,-5.81251l39.51453,-3.78328" fill="#00bb31" stroke="none" stroke-width="1"/><path d="M2385.19384,454.3907c0,-3.31371 2.68629,-6 6,-6c3.31371,0 6,2.68629 6,6c0,3.31371 -2.68629,6 -6,6c-3.31371,0 -6,-2.68629 -6,-6z" fill="#00bb31" stroke="none" stroke-width="1"/><path d="M2413.69384,429.3907c0,-3.31371 2.68629,-6 6,-6c3.31371,0 6,2.68629 6,6c0,3.31371 -2.68629,6 -6,6c-3.31371,0 -6,-2.68629 -6,-6z" fill="#00bb31" stroke="none" stroke-width="1"/><path d="M2328.74394,465.27669l37.4499,-10.88599v-15l25,-25h57l-28.5,40h-28.5" fill="none" stroke="#00bb31" stroke-width="6"/><path d="M2366.19384,454.3907l25,-25h28.5" fill="none" stroke="#00bb31" stroke-width="6"/><path d="M2249.59067,672.10179l-2.1427,-4.47508l-1.87884,-8.58344l-4.88941,-12.69883l-2.65431,-12.63296l-4.60047,-7.32143l1.46108,-15.64354l-12.56778,-10.24067l0.02266,-0.1905l-6.03109,-3.22341l-7.81585,-8.71277l-8.94097,-0.24317l-4.22731,-9.06255l6.11277,5.5348l9.8837,-1.5207l8.75858,6.9489l3.37116,0.94087l0.19569,-1.6448l-3.62739,-9.9772l-10.81923,-8.84692l-0.77402,-15.70941l-0.68123,-15.28659l4.68122,15.29517l2.77401,15.7137l12.81922,8.85121l5.62739,9.98149l0.3512,5.85344l4.66346,2.49246l8.40881,3.36035l1.81496,9.71634l0.53891,15.64783l6.60047,7.32572l4.65431,12.63726l6.8894,12.70313l3.87883,8.58773l3.45218,4.47789l-12.74057,39.97274" fill="#00bb31" stroke="none" stroke-width="1"/><path d="M2227.15952,712.12886c0,-3.31371 2.68629,-6 6,-6c3.31371,0 6,2.68629 6,6c0,3.31371 -2.68629,6 -6,6c-3.31371,0 -6,-2.68629 -6,-6z" fill="#00bb31" stroke="none" stroke-width="1"/><path d="M2195.15952,683.12886c0,-3.31371 2.68629,-6 6,-6c3.31371,0 6,2.68629 6,6c0,3.31371 -2.68629,6 -6,6c-3.31371,0 -6,-2.68629 -6,-6z" fill="#00bb31" stroke="none" stroke-width="1"/><path d="M2262.24538,672.12895l-0.08586,39.99991v-17l-29,-29h-64l32,46h32" fill="none" stroke="#00bb31" stroke-width="6"/><path d="M2262.15952,712.12886l-29,-29h-32" fill="none" stroke="#00bb31" stroke-width="6"/><path d="M2030.43358,404.02366l4.22421,9.17207l-1.07415,9.54352l-0.09268,10.56171l-4.14707,13.48778l2.69648,8.17517l7.34161,4.88086l5.01369,11.30765l0.97676,9.38328l10.26594,3.4074l3.16884,8.94195l-6.32311,-6.48215l-11.84308,-2.17751l-2.55389,-8.15338l-5.01552,-7.66902l-1.04208,6.56305l-9.03609,7.39701l-0.05686,14.12459l-3.50552,-15.94377l7.2549,-8.3066l0.23556,-9.28443l-3.32546,-2.21083l-4.22513,-11.9226l1.06699,-6.57862l2.36588,-14.39737l-1.68852,-11.4713l-0.70704,-10.45311l-5.75772,-9.95517l20.17099,-20.01618" fill="#00bb31" stroke="none" stroke-width="1"/><path d="M2048.82153,375.94765c0,-3.31371 2.68629,-6 6,-6c3.31371,0 6,2.68629 6,6c0,3.31371 -2.68629,6 -6,6c-3.31371,0 -6,-2.68629 -6,-6z" fill="#00bb31" stroke="none" stroke-width="1"/><path d="M2078.82153,355.94765c0,-3.31371 2.68629,-6 6,-6c3.31371,0 6,2.68629 6,6c0,3.31371 -2.68629,6 -6,6c-3.31371,0 -6,-2.68629 -6,-6z" fill="#00bb31" stroke="none" stroke-width="1"/><path d="M2022.54206,399.99375l12.27947,-24.04609v-16l20,-20h60l-30,36h-30" fill="none" stroke="#00bb31" stroke-width="6"/><path d="M2034.82153,375.94765l20,-20h30" fill="none" stroke="#00bb31" stroke-width="6"/><path d="M2068.02071,567.10569l-26.13948,-16.9753l-3.50107,-0.55723l-10.59206,2.00227l-9.05463,3.06898l7.23545,0.49341l9.68247,-0.22108l3.29184,0.96694" fill="#00bb31" stroke="none" stroke-width="1"/><path d="M2098.02071,567.10569c0,-3.31371 2.68629,-6 6,-6c3.31371,0 6,2.68629 6,6c0,3.31371 -2.68629,6 -6,6c-3.31371,0 -6,-2.68629 -6,-6z" fill="#00bb31" stroke="none" stroke-width="1"/><path d="M2128.52071,531.10569c0,-3.31371 2.68629,-6 6,-6c3.31371,0 6,2.68629 6,6c0,3.31371 -2.68629,6 -6,6c-3.31371,0 -6,-2.68629 -6,-6z" fill="#00bb31" stroke="none" stroke-width="1"/><path d="M2040.41223,553.00704l27.60848,14.09865v-17l36,-36h61l-30.5,53h-30.5" fill="none" stroke="#00bb31" stroke-width="6"/><path d="M2068.02071,567.10569l36,-36h30.5" fill="none" stroke="#00bb31" stroke-width="6"/><path d="M1872.98922,610.40927l31.93687,23.21297l2.05848,0.95576l10.13296,-7.39699l14.4877,-0.61199l12.38748,-2.50648l12.38748,-2.50648l9.2076,3.7994l-7.38842,-7.36178l-11.47789,0.72529l-11.47789,0.72529l-13.57811,-1.1692l-9.22337,5.6158l-1.92328,-1.22051" fill="#00bb31" stroke="none" stroke-width="1"/><path d="M1842.98922,610.40927c0,-3.31371 2.68629,-6 6,-6c3.31371,0 6,2.68629 6,6c0,3.31371 -2.68629,6 -6,6c-3.31371,0 -6,-2.68629 -6,-6z" fill="#00bb31" stroke="none" stroke-width="1"/><path d="M1812.48922,586.40927c0,-3.31371 2.68629,-6 6,-6c3.31371,0 6,2.68629 6,6c0,3.31371 -2.68629,6 -6,6c-3.31371,0 -6,-2.68629 -6,-6z" fill="#00bb31" stroke="none" stroke-width="1"/><path d="M1907.72247,628.14629l-34.73324,-17.73702v-20l-24,-24h-61l30.5,44h30.5" fill="none" stroke="#00bb31" stroke-width="6"/><path d="M1872.98922,610.40927l-24,-24h-30.5" fill="none" stroke="#00bb31" stroke-width="6"/><path d="M1770.95451,400.86719l8.66183,8.60365l-7.20027,15.02837l8.40389,7.64527l-2.90598,11.7789l4.81,9.66615l3.40919,12.12333l4.90188,13.78823l0.00262,0.12864l4.20922,4.31137l8.34905,11.41461l9.04763,12.13015l-11.90976,-9.33583l-9.51645,-9.74739l0.22903,10.87861l5.86638,13.52414l3.31731,8.00125l-8.01659,11.71975l4.06247,-12.32389l-5.29437,-8.30332l-7.84343,-13.8262l-2.22867,-12.25318l-0.9728,-3.70177l-4.13794,-1.94106l-2.70955,-9.93269l-1.19544,-6.64587l-5.38625,-12.4254l-6.78706,-9.96822l0.92892,-12.08097l-10.38095,-7.94734l5.22321,-15.33044l-9.04722,-7.57417l14.19558,-18.58745" fill="#00bb31" stroke="none" stroke-width="1"/><path d="M1784.04001,379.6844c0,-3.31371 2.68629,-6 6,-6c3.31371,0 6,2.68629 6,6c0,3.31371 -2.68629,6 -6,6c-3.31371,0 -6,-2.68629 -6,-6z" fill="#00bb31" stroke="none" stroke-width="1"/><path d="M1813.54001,350.6844c0,-3.31371 2.68629,-6 6,-6c3.31371,0 6,2.68629 6,6c0,3.31371 -2.68629,6 -6,6c-3.31371,0 -6,-2.68629 -6,-6z" fill="#00bb31" stroke="none" stroke-width="1"/><path d="M1758.89947,399.56952l2.14054,-19.88512v-20l29,-29h59l-29.5,49h-29.5" fill="none" stroke="#00bb31" stroke-width="6"/><path d="M1761.04001,379.6844l29,-29h29.5" fill="none" stroke="#00bb31" stroke-width="6"/><path d="M1803.7368,612.93628l-2.89934,-0.97725l-11.27229,3.60751l-8.14905,-8.022l-11.98779,-6.21533l-7.39966,-2.5089l-9.8038,1.7229l-8.32981,-3.25795l-12.67434,4.16668l-9.50708,-5.15901l-13.57952,5.25326l-13.21851,-1.80859l12.85573,-2.17492l13.39813,-7.24501l9.32569,3.16725l12.49294,-6.15844l7.52385,2.94272l-3.5357,-3.78537l-7.01974,-2.30145l-12.74028,-1.17214l-9.25983,-6.0709l12.64447,3.93918l14.4326,0.10628l8.71206,1.23559l7.35734,4.9992l7.69602,4.0583l12.47566,2.59031l13.68011,5.14947l9.84137,6.95614l12.66518,-4.56543l17.57835,34.86136" fill="#00bb31" stroke="none" stroke-width="1"/><path d="M1849.03957,636.26973c0,-3.31371 2.68629,-6 6,-6c3.31371,0 6,2.68629 6,6c0,3.31371 -2.68629,6 -6,6c-3.31371,0 -6,-2.68629 -6,-6z" fill="#00bb31" stroke="none" stroke-width="1"/><path d="M1875.53957,616.26973c0,-3.31371 2.68629,-6 6,-6c3.31371,0 6,2.68629 6,6c0,3.31371 -2.68629,6 -6,6c-3.31371,0 -6,-2.68629 -6,-6z" fill="#00bb31" stroke="none" stroke-width="1"/><path d="M1810.599,607.17232l24.44056,29.0974v-20l20,-20h53l-26.5,40h-26.5" fill="none" stroke="#00bb31" stroke-width="6"/><path d="M1835.03957,636.26973l20,-20h26.5" fill="none" stroke="#00bb31" stroke-width="6"/><path d="M1537.92585,647.31532l-4.94264,38.98877l4.79074,12.44569l6.22095,7.40105l7.27644,11.38677l2.53926,13.41015l1.46073,-13.40098l-5.27644,-11.38218l-4.22096,-7.39647l-3.08429,-12.44178" fill="#00bb31" stroke="none" stroke-width="1"/><path d="M1551.92585,647.31532c0,-3.31371 2.68629,-6 6,-6c3.31371,0 6,2.68629 6,6c0,3.31371 -2.68629,6 -6,6c-3.31371,0 -6,-2.68629 -6,-6z" fill="#00bb31" stroke="none" stroke-width="1"/><path d="M1579.92585,627.31532c0,-3.31371 2.68629,-6 6,-6c3.31371,0 6,2.68629 6,6c0,3.31371 -2.68629,6 -6,6c-3.31371,0 -6,-2.68629 -6,-6z" fill="#00bb31" stroke="none" stroke-width="1"/><path d="M1537.83642,686.31521l0.08942,-38.9999v-16l20,-20h56l-28,36h-28" fill="none" stroke="#00bb31" stroke-width="6"/><path d="M1537.92585,647.31532l20,-20h28" fill="none" stroke="#00bb31" stroke-width="6"/><path d="M1386.53326,624.97285l12.06068,0.25091l7.33862,-5.00924l10.76661,1.17533l11.6544,-7.72477l11.32597,-1.33553l7.17556,-9.39027l6.54422,-9.06494l7.20931,-6.93007l9.92549,-1.21847l5.10236,-7.67893l-2.33033,10.56265l-8.53947,2.66033l-5.82329,8.37193l-6.54422,9.06494l-0.99396,1.30074l0.43805,-0.08863l10.36148,-7.30295l-10.37065,11.30294l-4.79096,1.79705l-2.63005,3.44181l-11.45112,6.8463l-12.80921,3.9905l-3.4765,1.39533l-10.7712,0.82466l-7.34321,7.00923l-12.06418,1.27625l-39.98209,-7.85528" fill="#00bb31" stroke="none" stroke-width="1"/><path d="M1313.51556,632.64469c0,-3.31371 2.68629,-6 6,-6c3.31371,0 6,2.68629 6,6c0,3.31371 -2.68629,6 -6,6c-3.31371,0 -6,-2.68629 -6,-6z" fill="#00bb31" stroke="none" stroke-width="1"/><path d="M1279.51556,605.64469c0,-3.31371 2.68629,-6 6,-6c3.31371,0 6,2.68629 6,6c0,3.31371 -2.68629,6 -6,6c-3.31371,0 -6,-2.68629 -6,-6z" fill="#00bb31" stroke="none" stroke-width="1"/><path d="M1386.51546,632.73641l-39.99989,-0.09172v-17l-27,-27h-68l34,44h34" fill="none" stroke="#00bb31" stroke-width="6"/><path d="M1346.51556,632.64469l-27,-27h-34" fill="none" stroke="#00bb31" stroke-width="6"/><path d="M1529.1212,648.29513l6.19217,-21.98586l-0.39236,-2.01424l-5.63716,-11.24937l-9.88346,-8.6095l-5.31587,-12.62661l-12.22456,-4.79909l-4.82403,-15.91134l0.82404,15.90217l10.22456,4.7945l3.31587,12.62202l7.88347,8.60492l3.63716,11.24478l0.10887,2.01359" fill="#00bb31" stroke="none" stroke-width="1"/><path d="M1490.1212,648.29513c0,-3.31371 2.68629,-6 6,-6c3.31371,0 6,2.68629 6,6c0,3.31371 -2.68629,6 -6,6c-3.31371,0 -6,-2.68629 -6,-6z" fill="#00bb31" stroke="none" stroke-width="1"/><path d="M1459.6212,615.29513c0,-3.31371 2.68629,-6 6,-6c3.31371,0 6,2.68629 6,6c0,3.31371 -2.68629,6 -6,6c-3.31371,0 -6,-2.68629 -6,-6z" fill="#00bb31" stroke="none" stroke-width="1"/><path d="M1529.17164,626.29519l-0.05044,21.99994v-16l-33,-33h-61l30.5,49h30.5" fill="none" stroke="#00bb31" stroke-width="6"/><path d="M1529.1212,648.29513l-33,-33h-30.5" fill="none" stroke="#00bb31" stroke-width="6"/><path d="M1214.04973,620.17792l-29.61206,15.49762l-0.55347,4.63103l2.19851,11.4521l-7.07639,7.21227l2.94255,12.65477l-3.96063,14.77096l6.35355,-11.56567l-1.74609,-11.05212l8.27285,-5.60962l-1.00205,-9.84946l0.90795,-4.15621" fill="#00bb31" stroke="none" stroke-width="1"/><path d="M1236.04973,620.17792c0,-3.31371 2.68629,-6 6,-6c3.31371,0 6,2.68629 6,6c0,3.31371 -2.68629,6 -6,6c-3.31371,0 -6,-2.68629 -6,-6z" fill="#00bb31" stroke="none" stroke-width="1"/><path d="M1259.54973,592.17792c0,-3.31371 2.68629,-6 6,-6c3.31371,0 6,2.68629 6,6c0,3.31371 -2.68629,6 -6,6c-3.31371,0 -6,-2.68629 -6,-6z" fill="#00bb31" stroke="none" stroke-width="1"/><path d="M1187.60606,639.91957l26.44366,-19.74165v-15l28,-28h47l-23.5,43h-23.5" fill="none" stroke="#00bb31" stroke-width="6"/><path d="M1214.04973,620.17792l28,-28h23.5" fill="none" stroke="#00bb31" stroke-width="6"/><path d="M1177.75265,575.97677l-12.46461,-16.77813l-1.0114,-0.30586l-12.46298,-0.97031l-12.06535,3.13358l-9.74573,-5.61967l-10.78065,1.3034l-13.89899,-1.30333l11.51959,4.51867l9.59094,0.30427l8.55603,7.22734l10.87564,-1.52591l11.27327,2.57798l0.92543,0.42202" fill="#00bb31" stroke="none" stroke-width="1"/><path d="M1191.75265,575.97677c0,-3.31371 2.68629,-6 6,-6c3.31371,0 6,2.68629 6,6c0,3.31371 -2.68629,6 -6,6c-3.31371,0 -6,-2.68629 -6,-6z" fill="#00bb31" stroke="none" stroke-width="1"/><path d="M1214.25265,555.97677c0,-3.31371 2.68629,-6 6,-6c3.31371,0 6,2.68629 6,6c0,3.31371 -2.68629,6 -6,6c-3.31371,0 -6,-2.68629 -6,-6z" fill="#00bb31" stroke="none" stroke-width="1"/><path d="M1161.67594,564.07973l16.0767,11.89704v-15l20,-20h45l-22.5,35h-22.5" fill="none" stroke="#00bb31" stroke-width="6"/><path d="M1177.75265,575.97677l20,-20h22.5" fill="none" stroke="#00bb31" stroke-width="6"/><path d="M971.71261,718.59783l-0.91023,-0.48652l-9.76617,5.5817l-13.08788,-4.6636l-13.62334,3.31846l-6.63281,-11.24631l-12.80321,-0.65964l-5.65147,0.69987l-8.45734,1.6079l-6.60233,0.7346l-7.79138,11.45164l-10.44561,3.59014l-9.8488,0.03433l-6.07116,6.01174l-13.59211,3.90572l-12.49222,-0.97181l10.85494,-2.67775l12.77346,-5.7305l5.25252,-7.83652l9.03016,-1.85911l9.62697,-5.41492l2.24769,-3.30361l-8.18707,-6.19645l-11.62783,3.45232l-12.29092,-1.6034l-12.67569,-1.40585l15.39539,-1.52727l13.65077,0.13684l12.98768,-4.91888l7.855,4.55604l1.23148,-1.81001l11.67358,-0.85297l13.49836,-1.67162l7.62473,1.25376l15.71322,-0.72706l7.99266,9.77975l14.98319,-4.78502l14.44773,3.19704l9.57582,-6.06622l17.15723,28.06722" fill="#00bb31" stroke="none" stroke-width="1"/><path d="M1021.72761,729.56182c0,-3.31371 2.68629,-6 6,-6c3.31371,0 6,2.68629 6,6c0,3.31371 -2.68629,6 -6,6c-3.31371,0 -6,-2.68629 -6,-6z" fill="#00bb31" stroke="none" stroke-width="1"/><path d="M1044.72761,704.56182c0,-3.31371 2.68629,-6 6,-6c3.31371,0 6,2.68629 6,6c0,3.31371 -2.68629,6 -6,6c-3.31371,0 -6,-2.68629 -6,-6z" fill="#00bb31" stroke="none" stroke-width="1"/><path d="M978.64149,710.04622l24.08612,19.51561v-18l25,-25h46l-23,43h-23" fill="none" stroke="#00bb31" stroke-width="6"/><path d="M1002.72761,729.56182l25,-25h23" fill="none" stroke="#00bb31" stroke-width="6"/><path d="M815.61429,606.97257l-26.2823,16.96948l-1.49907,2.85663l-0.04286,17.29789l-11.58261,11.31173l-1.95551,9.96848l4.55767,-6.93059l12.88369,-9.79278l1.34394,-15.77894l1.77207,-2.53791" fill="#00bb31" stroke="none" stroke-width="1"/><path d="M849.61429,606.97257c0,-3.31371 2.68629,-6 6,-6c3.31371,0 6,2.68629 6,6c0,3.31371 -2.68629,6 -6,6c-3.31371,0 -6,-2.68629 -6,-6z" fill="#00bb31" stroke="none" stroke-width="1"/><path d="M880.61429,566.97257c0,-3.31371 2.68629,-6 6,-6c3.31371,0 6,2.68629 6,6c0,3.31371 -2.68629,6 -6,6c-3.31371,0 -6,-2.68629 -6,-6z" fill="#00bb31" stroke="none" stroke-width="1"/><path d="M792.07065,627.1393l23.54364,-20.16673v-16l40,-40h62l-31,56h-31" fill="none" stroke="#00bb31" stroke-width="6"/><path d="M815.61429,606.97257l40,-40h31" fill="none" stroke="#00bb31" stroke-width="6"/><path d="M569.69454,672.21142l-1.57117,-1.59384l-9.50462,-8.22417l-2.20642,-16.6939l-10.58076,-4.78296l-1.69525,-8.10678l-0.17381,-0.31074l-3.75387,-0.22898l-5.78649,-7.96973l-11.75285,-5.64539l-8.15455,-5.87395l-7.88227,-10.33779l-7.65371,-6.73949l-11.1596,-0.68071l13.16296,-2.78144l8.65539,5.00841l8.88395,8.60671l9.15623,4.14287l1.56365,0.75109l-0.66361,-4.0833l-9.72995,-3.37567l13.72995,3.37956l2.5793,6.92097l4.27351,2.05275l4.05212,5.58098l3.51718,2.4087l0.07242,0.09321l7.07245,0.43141l-0.00841,8.66025l3.69525,8.10872l12.58076,4.78491l4.20642,16.69585l11.50462,8.22612l1.93125,1.59419l-9.19946,19.99107" fill="#00bb31" stroke="none" stroke-width="1"/><path d="M535.85515,692.22033c0,-3.31371 2.68629,-6 6,-6c3.31371,0 6,2.68629 6,6c0,3.31371 -2.68629,6 -6,6c-3.31371,0 -6,-2.68629 -6,-6z" fill="#00bb31" stroke="none" stroke-width="1"/><path d="M509.35515,655.22033c0,-3.31371 2.68629,-6 6,-6c3.31371,0 6,2.68629 6,6c0,3.31371 -2.68629,6 -6,6c-3.31371,0 -6,-2.68629 -6,-6z" fill="#00bb31" stroke="none" stroke-width="1"/><path d="M578.87458,672.22034l-0.01943,19.99999v-20l-37,-37h-53l26.5,57h26.5" fill="none" stroke="#00bb31" stroke-width="6"/><path d="M578.85515,692.22033l-37,-37h-26.5" fill="none" stroke="#00bb31" stroke-width="6"/><path d="M105.05688,684.35188l21.99272,4.74608l6.56155,-3.48508l11.58659,-6.98219l8.96575,-8.04577l14.31333,-1.53445l-14.30717,-2.46554l-8.96267,6.04577l-11.58351,4.98219l-6.55936,2.0606" fill="#00bb31" stroke="none" stroke-width="1"/><path d="M62.05688,684.35188c0,-3.31371 2.68629,-6 6,-6c3.31371,0 6,2.68629 6,6c0,3.31371 -2.68629,6 -6,6c-3.31371,0 -6,-2.68629 -6,-6z" fill="#00bb31" stroke="none" stroke-width="1"/><path d="M28.05688,647.35188c0,-3.31371 2.68629,-6 6,-6c3.31371,0 6,2.68629 6,6c0,3.31371 -2.68629,6 -6,6c-3.31371,0 -6,-2.68629 -6,-6z" fill="#00bb31" stroke="none" stroke-width="1"/><path d="M127.05685,684.38573l-21.99997,-0.03385v-20l-37,-37h-68l34,57h34" fill="none" stroke="#00bb31" stroke-width="6"/><path d="M105.05688,684.35188l-37,-37h-34" fill="none" stroke="#00bb31" stroke-width="6"/><path d="M273.52289,706.57357l36.99347,4.26937l2.98802,-0.7833l9.00387,-15.66145l12.71642,3.3968l12.36676,-6.13998l-12.3606,2.13998l-12.71334,-5.3968l-9.00079,13.66145l-2.98736,0.35841" fill="#00bb31" stroke="none" stroke-width="1"/><path d="M227.52289,706.57357c0,-3.31371 2.68629,-6 6,-6c3.31371,0 6,2.68629 6,6c0,3.31371 -2.68629,6 -6,6c-3.31371,0 -6,-2.68629 -6,-6z" fill="#00bb31" stroke="none" stroke-width="1"/><path d="M200.02289,666.57357c0,-3.31371 2.68629,-6 6,-6c3.31371,0 6,2.68629 6,6c0,3.31371 -2.68629,6 -6,6c-3.31371,0 -6,-2.68629 -6,-6z" fill="#00bb31" stroke="none" stroke-width="1"/><path d="M310.52284,706.6305l-36.99996,-0.05693v-15l-40,-40h-55l27.5,55h27.5" fill="none" stroke="#00bb31" stroke-width="6"/><path d="M273.52289,706.57357l-40,-40h-27.5" fill="none" stroke="#00bb31" stroke-width="6"/><path d="M296.07504,527.33939l14.70278,13.58673l-1.24735,1.23631" fill="#00bb31" stroke="none" stroke-width="1"/><path d="M260.07504,527.33939c0,-3.31371 2.68629,-6 6,-6c3.31371,0 6,2.68629 6,6c0,3.31371 -2.68629,6 -6,6c-3.31371,0 -6,-2.68629 -6,-6z" fill="#00bb31" stroke="none" stroke-width="1"/><path d="M237.57504,497.33939c0,-3.31371 2.68629,-6 6,-6c3.31371,0 6,2.68629 6,6c0,3.31371 -2.68629,6 -6,6c-3.31371,0 -6,-2.68629 -6,-6z" fill="#00bb31" stroke="none" stroke-width="1"/><path d="M310.15415,541.54428l-14.07911,-14.20489v-19l-30,-30h-45l22.5,49h22.5" fill="none" stroke="#00bb31" stroke-width="6"/><path d="M296.07504,527.33939l-30,-30h-22.5" fill="none" stroke="#00bb31" stroke-width="6"/><path d="M-46.56106,635.59603l-30.09265,4.23139l-8.75242,5.62674l-3.39977,14.007l-5.07458,12.91384l-3.62521,12.17344l5.05001,-8.4358l5.78698,-11.04502l4.11217,-12.13818l8.76455,-3.84455" fill="#00bb31" stroke="none" stroke-width="1"/><path d="M-27.56106,635.59603c0,-3.31371 2.68629,-6 6,-6c3.31371,0 6,2.68629 6,6c0,3.31371 -2.68629,6 -6,6c-3.31371,0 -6,-2.68629 -6,-6z" fill="#00bb31" stroke="none" stroke-width="1"/><path d="M-3.56106,610.59603c0,-3.31371 2.68629,-6 6,-6c3.31371,0 6,2.68629 6,6c0,3.31371 -2.68629,6 -6,6c-3.31371,0 -6,-2.68629 -6,-6z" fill="#00bb31" stroke="none" stroke-width="1"/><path d="M-75.22284,644.45616l28.66179,-8.86013v-19l25,-25h48l-24,44h-24" fill="none" stroke="#00bb31" stroke-width="6"/><path d="M-46.56106,635.59603l25,-25h24" fill="none" stroke="#00bb31" stroke-width="6"/><path d="M3.51739,525.72413l27.12536,-12.241l2.15226,-4.49947l-6.55941,-8.80064l4.55595,-13.53866l0.58076,-14.63314l-0.49003,-11.65767l-0.21722,-13.29445l-2.78519,10.65144l-1.01118,10.33616l-2.08196,13.31163l-6.05715,12.21715l5.0582,7.47913l-1.23417,1.79487" fill="#00bb31" stroke="none" stroke-width="1"/><path d="M-41.48261,525.72413c0,-3.31371 2.68629,-6 6,-6c3.31371,0 6,2.68629 6,6c0,3.31371 -2.68629,6 -6,6c-3.31371,0 -6,-2.68629 -6,-6z" fill="#00bb31" stroke="none" stroke-width="1"/><path d="M-65.48261,486.72413c0,-3.31371 2.68629,-6 6,-6c3.31371,0 6,2.68629 6,6c0,3.31371 -2.68629,6 -6,6c-3.31371,0 -6,-2.68629 -6,-6z" fill="#00bb31" stroke="none" stroke-width="1"/><path d="M26.59818,508.16631l-23.08079,17.55782v-20l-39,-39h-48l24,59h24" fill="none" stroke="#00bb31" stroke-width="6"/><path d="M3.51739,525.72413l-39,-39h-24" fill="none" stroke="#00bb31" stroke-width="6"/><path d="M-32.65497,646.84301l-23.9764,25.88401l-2.69021,6.95139l6.63112,10.65043l7.28223,14.59708l5.05337,14.54701l-1.47775,-12.75399l-5.49442,-13.70057l-4.8433,-9.75392l2.78836,-5.35608" fill="#00bb31" stroke="none" stroke-width="1"/><path d="M-11.65497,646.84301c0,-3.31371 2.68629,-6 6,-6c3.31371,0 6,2.68629 6,6c0,3.31371 -2.68629,6 -6,6c-3.31371,0 -6,-2.68629 -6,-6z" fill="#00bb31" stroke="none" stroke-width="1"/><path d="M12.34503,619.84301c0,-3.31371 2.68629,-6 6,-6c3.31371,0 6,2.68629 6,6c0,3.31371 -2.68629,6 -6,6c-3.31371,0 -6,-2.68629 -6,-6z" fill="#00bb31" stroke="none" stroke-width="1"/><path d="M-53.00668,675.3177l20.35171,-28.47469v-20l27,-27h48l-24,47h-24" fill="none" stroke="#00bb31" stroke-width="6"/><path d="M-32.65497,646.84301l27,-27h24" fill="none" stroke="#00bb31" stroke-width="6"/><path d="M-312.68682,719.21402l-35.99869,-4.20851l-2.55545,0.4889l-1.96377,12.88044l-11.03137,11.21351l-8.40313,7.51343l8.40188,-3.51343l11.03075,-9.21351l1.96315,-10.88044l2.55533,-0.09438" fill="#00bb31" stroke="none" stroke-width="1"/><path d="M-291.68682,719.21402c0,-3.31371 2.68629,-6 6,-6c3.31371,0 6,2.68629 6,6c0,3.31371 -2.68629,6 -6,6c-3.31371,0 -6,-2.68629 -6,-6z" fill="#00bb31" stroke="none" stroke-width="1"/><path d="M-258.68682,692.21402c0,-3.31371 2.68629,-6 6,-6c3.31371,0 6,2.68629 6,6c0,3.31371 -2.68629,6 -6,6c-3.31371,0 -6,-2.68629 -6,-6z" fill="#00bb31" stroke="none" stroke-width="1"/><path d="M-348.68682,719.20278l36,0.01124v-18l27,-27h66l-33,45h-33" fill="none" stroke="#00bb31" stroke-width="6"/><path d="M-312.68682,719.21402l27,-27h33" fill="none" stroke="#00bb31" stroke-width="6"/><path d="M-249.30951,515.76577l-33.27531,9.99086l-2.098,1.04099l-1.8134,10.45663l-12.79375,8.35142l-7.23421,12.60484l-6.99976,9.00692l2.1577,13.49479l-4.32528,10.3061l6.23891,-6.79355l-1.20088,-11.73852l7.95657,-7.25064l8.19103,-10.84856l13.75056,-6.59514l2.77022,-8.70036l2.23757,-0.78479" fill="#00bb31" stroke="none" stroke-width="1"/><path d="M-234.30951,515.76577c0,-3.31371 2.68629,-6 6,-6c3.31371,0 6,2.68629 6,6c0,3.31371 -2.68629,6 -6,6c-3.31371,0 -6,-2.68629 -6,-6z" fill="#00bb31" stroke="none" stroke-width="1"/><path d="M-201.30951,494.76577c0,-3.31371 2.68629,-6 6,-6c3.31371,0 6,2.68629 6,6c0,3.31371 -2.68629,6 -6,6c-3.31371,0 -6,-2.68629 -6,-6z" fill="#00bb31" stroke="none" stroke-width="1"/><path d="M-279.16617,532.03169l29.85666,-16.26592v-18l21,-21h66l-33,39h-33" fill="none" stroke="#00bb31" stroke-width="6"/><path d="M-249.30951,515.76577l21,-21h33" fill="none" stroke="#00bb31" stroke-width="6"/><path d="M-503.32429,373.69307l-3.92082,20.28814l0.40584,3.11456l12.91337,8.82639l2.09239,12.41892l14.02511,6.88627l9.75213,7.92617l-5.76011,-8.17881l-12.0291,-7.01259l-0.09638,-12.54524l-10.91736,-8.95271l-0.01789,-3.13911" fill="#00bb31" stroke="none" stroke-width="1"/><path d="M-530.32429,373.69307c0,-3.31371 2.68629,-6 6,-6c3.31371,0 6,2.68629 6,6c0,3.31371 -2.68629,6 -6,6c-3.31371,0 -6,-2.68629 -6,-6z" fill="#00bb31" stroke="none" stroke-width="1"/><path d="M-553.32429,352.69307c0,-3.31371 2.68629,-6 6,-6c3.31371,0 6,2.68629 6,6c0,3.31371 -2.68629,6 -6,6c-3.31371,0 -6,-2.68629 -6,-6z" fill="#00bb31" stroke="none" stroke-width="1"/><path d="M-502.06112,393.65314l-1.26317,-19.96007v-16l-21,-21h-46l23,37h23" fill="none" stroke="#00bb31" stroke-width="6"/><path d="M-503.32429,373.69307l-21,-21h-23" fill="none" stroke="#00bb31" stroke-width="6"/><path d="M-572.50978,641.8173l17.54484,34.90588l3.58879,0.16796l10.31768,-5.11599l8.08587,8.84893l16.11664,-0.17918l7.35892,4.43627l10.81635,3.41344l15.242,3.80053l-12.82304,-6.98622l-9.60687,-5.00629l-6.14944,-6.02911l-14.90716,-1.41367l-6.87639,-10.44177l-7.2913,2.82035" fill="#00bb31" stroke="none" stroke-width="1"/><path d="M-598.50978,641.8173c0,-3.31371 2.68629,-6 6,-6c3.31371,0 6,2.68629 6,6c0,3.31371 -2.68629,6 -6,6c-3.31371,0 -6,-2.68629 -6,-6z" fill="#00bb31" stroke="none" stroke-width="1"/><path d="M-633.50978,621.8173c0,-3.31371 2.68629,-6 6,-6c3.31371,0 6,2.68629 6,6c0,3.31371 -2.68629,6 -6,6c-3.31371,0 -6,-2.68629 -6,-6z" fill="#00bb31" stroke="none" stroke-width="1"/><path d="M-548.0289,670.8808l-24.48087,-29.0635v-17l-20,-20h-70l35,37h35" fill="none" stroke="#00bb31" stroke-width="6"/><path d="M-572.50978,641.8173l-20,-20h-35" fill="none" stroke="#00bb31" stroke-width="6"/><path d="M-889.3562,762.21772l-4.68302,-10.48184l-8.05226,-0.85878l-4.55394,-9.21113l-11.06268,-3.67612l-6.49646,-6.05464l-0.84316,-0.13098l-14.10658,1.00224l-10.32937,4.27832l-13.32658,-9.97008l-8.2635,3.42266l-11.11413,1.21496l-9.69119,-4.69902l9.97483,0.70909l11.25595,-3.20993l8.40532,-5.41762l13.46839,7.97511l7.87857,-3.26322l-4.26786,-5.14001l-7.36185,-7.15498l10.89581,5.28118l6.36555,5.77272l10.92574,-0.77624l11.89888,1.84839l3.56654,9.62754l12.82966,2.73921l6.32092,8.27422l9.81924,-0.07813l5.93218,9.18904l9.1713,33.91709" fill="#00bb31" stroke="none" stroke-width="1"/><path d="M-831.79991,787.3468c0,-3.31371 2.68629,-6 6,-6c3.31371,0 6,2.68629 6,6c0,3.31371 -2.68629,6 -6,6c-3.31371,0 -6,-2.68629 -6,-6z" fill="#00bb31" stroke="none" stroke-width="1"/><path d="M-798.29991,748.3468c0,-3.31371 2.68629,-6 6,-6c3.31371,0 6,2.68629 6,6c0,3.31371 -2.68629,6 -6,6c-3.31371,0 -6,-2.68629 -6,-6z" fill="#00bb31" stroke="none" stroke-width="1"/><path d="M-881.6637,757.82371l16.86379,29.52308v-16l39,-39h67l-33.5,55h-33.5" fill="none" stroke="#00bb31" stroke-width="6"/><path d="M-864.79991,787.3468l39,-39h33.5" fill="none" stroke="#00bb31" stroke-width="6"/><path d="M-886.37858,573.86636l15.83154,13.0503l6.46778,-2.26061l12.05685,5.04162l12.92072,-7.0932l11.56535,-5.80824l-9.77371,2.23192l-12.0249,5.30504l-11.16103,-6.82978l-5.95099,1.22903" fill="#00bb31" stroke="none" stroke-width="1"/><path d="M-916.37858,573.86636c0,-3.31371 2.68629,-6 6,-6c3.31371,0 6,2.68629 6,6c0,3.31371 -2.68629,6 -6,6c-3.31371,0 -6,-2.68629 -6,-6z" fill="#00bb31" stroke="none" stroke-width="1"/><path d="M-938.87858,549.86636c0,-3.31371 2.68629,-6 6,-6c3.31371,0 6,2.68629 6,6c0,3.31371 -2.68629,6 -6,6c-3.31371,0 -6,-2.68629 -6,-6z" fill="#00bb31" stroke="none" stroke-width="1"/><path d="M-868.497,582.82456l-17.88158,-8.95819v-15l-24,-24h-45l22.5,39h22.5" fill="none" stroke="#00bb31" stroke-width="6"/><path d="M-886.37858,573.86636l-24,-24h-22.5" fill="none" stroke="#00bb31" stroke-width="6"/><path d="M2448.30004,559.20003l1.68783,10.87734" fill="none" stroke="none" stroke-width="1"/><path d="" fill="none" stroke="#00bb31" stroke-width="6" opacity="0"/><path d="M1380.70823,775.63153l17.85703,-17.39673c2.28625,-2.11233 4.10197,-4.42464 5.44716,-6.93692c1.34519,-2.51228 2.1294,-5.36453 2.35262,-8.55673c0.17207,-2.46066 -0.00234,-4.74506 -0.52322,-6.85319c-0.56878,-2.3788 -1.48171,-4.6146 -2.73879,-6.70739c-1.25708,-2.09279 -2.79993,-3.92153 -4.62857,-5.48624c-1.82864,-1.5647 -3.87888,-2.82746 -6.15073,-3.78828c-2.27184,-0.96082 -4.7046,-1.53191 -7.29827,-1.71327c-3.1257,-0.21857 -6.09374,0.17535 -8.90413,1.18176c-2.81038,1.00641 -5.28638,2.4873 -7.428,4.44267c-2.14162,1.95537 -3.87537,4.29012 -5.20126,7.00424c-1.32589,2.71412 -2.09812,5.63403 -2.31669,8.75973l15.86127,1.10913c0.0465,-0.66504 0.21404,-1.38845 0.50261,-2.17023c0.28857,-0.78177 0.70666,-1.50437 1.25427,-2.16779c0.54761,-0.66342 1.26881,-1.18104 2.16359,-1.55286c0.89478,-0.37182 1.97397,-0.51355 3.23755,-0.4252c1.39659,0.09766 2.55763,0.69677 3.48311,1.79735c0.92548,1.10057 1.54356,2.2966 1.85422,3.58808c0.0865,0.67434 0.11115,1.27753 0.07395,1.80957c-0.08836,1.26358 -0.46203,2.30672 -1.12103,3.12942l-29.3241,29.42614l-1.17191,16.75908l44.59111,3.11811l1.17191,-16.75908zM1349.62549,805.83689l7.29653,-104.3452l272.73401,19.07142l-7.29653,104.3452zM1460.11779,773.96681c0.09766,-1.39659 -0.03396,-2.85933 -0.39485,-4.38823c-0.3609,-1.5289 -0.8405,-3.03268 -1.43881,-4.51136c-0.59831,-1.47867 -1.26778,-2.89549 -2.0084,-4.25045c-0.74062,-1.35496 -1.4774,-2.52588 -2.21035,-3.51274c1.73096,-1.81701 3.31078,-3.86179 4.73945,-6.13434c1.42867,-2.27254 2.24067,-4.8054 2.43598,-7.59858l0.00698,-0.09976c0.21857,-3.1257 -0.1514,-5.95841 -1.1099,-8.49812c-0.95851,-2.53972 -2.34278,-4.72493 -4.15282,-6.55566c-1.81004,-1.83072 -4.03038,-3.28916 -6.66102,-4.37531c-2.63064,-1.08615 -5.50881,-1.73851 -8.63451,-1.95708c-3.1257,-0.21857 -6.06665,0.02688 -8.82286,0.73634c-2.7562,0.70947 -5.15791,1.8447 -7.20512,3.40569c-2.04721,1.561 -3.72213,3.53229 -5.02477,5.9139c-1.30264,2.3816 -2.06324,5.13525 -2.28181,8.26095l-0.00698,0.09976c-0.19532,2.79318 0.25627,5.4144 1.35476,7.86366c1.09849,2.44926 2.37836,4.69401 3.8396,6.73424c-0.86316,0.87525 -1.77236,1.93107 -2.72759,3.16745c-0.95524,1.23638 -1.832,2.54507 -2.63028,3.92608c-0.79828,1.38101 -1.46587,2.80458 -2.00279,4.2707c-0.53691,1.46612 -0.8542,2.89747 -0.95186,4.29406l-0.00698,0.09976c-0.24647,3.52473 0.07664,6.78855 0.96934,9.79147c0.8927,3.00292 2.26337,5.62158 4.11201,7.85598c1.84864,2.2344 4.14548,4.03233 6.89053,5.3938c2.74505,1.36147 5.84668,2.16311 9.30491,2.40494c3.45822,0.24182 6.6424,-0.13698 9.55254,-1.13642c2.91014,-0.99943 5.43718,-2.49346 7.58112,-4.48209c2.14394,-1.98862 3.86688,-4.40766 5.16882,-7.25712c1.30194,-2.84946 2.0715,-5.97004 2.30867,-9.36176zM1471.61148,798.82913l13.66663,0.95566l0.96264,-13.76638l-13.66663,-0.95566zM1532.86446,728.53068l-16.75908,-1.17191l-15.63171,14.24429l11.04091,12.70111l2.94455,-3.40289l-3.54363,50.67625l16.75908,1.17191zM1563.66148,788.42487l17.85703,-17.39673c2.28625,-2.11233 4.10197,-4.42464 5.44716,-6.93692c1.34519,-2.51228 2.1294,-5.36453 2.35262,-8.55673c0.17207,-2.46066 -0.00234,-4.74506 -0.52322,-6.85319c-0.56878,-2.3788 -1.48171,-4.6146 -2.73879,-6.70739c-1.25708,-2.09279 -2.79993,-3.92153 -4.62857,-5.48624c-1.82864,-1.5647 -3.87888,-2.82746 -6.15073,-3.78828c-2.27184,-0.96082 -4.7046,-1.53191 -7.29827,-1.71327c-3.1257,-0.21857 -6.09374,0.17535 -8.90413,1.18176c-2.81038,1.00641 -5.28638,2.4873 -7.428,4.44267c-2.14162,1.95537 -3.87537,4.29012 -5.20126,7.00424c-1.32589,2.71412 -2.09812,5.63403 -2.31669,8.75973l15.86127,1.10913c0.0465,-0.66504 0.21404,-1.38845 0.50261,-2.17023c0.28857,-0.78177 0.70666,-1.50437 1.25427,-2.16779c0.54761,-0.66342 1.26881,-1.18104 2.16359,-1.55286c0.89478,-0.37182 1.97397,-0.51355 3.23755,-0.4252c1.39659,0.09766 2.55763,0.69677 3.48311,1.79735c0.92548,1.10057 1.54356,2.2966 1.85422,3.58808c0.0865,0.67434 0.11115,1.27753 0.07395,1.80957c-0.08836,1.26358 -0.46203,2.30672 -1.12103,3.12942l-29.3241,29.42614l-1.17191,16.75908l44.59111,3.11811l1.17191,-16.75908zM1599.49919,807.77191l13.66663,0.95566l0.96264,-13.76638l-13.66663,-0.95566z" fill="#00bb31" stroke="none" stroke-width="1"/></g></g></svg>